<?xml version="1.0" encoding="UTF-8"?>
<svg data-bbox="426.487 283.803 1253.692 1459.059" xmlns="http://www.w3.org/2000/svg" viewBox="0 0 2106.667 2026.667" height="2026.667" width="2106.667" data-type="color">
    <g>
        <defs>
            <clipPath id="e8fad628-6689-489d-942b-651dc2113f1f" clipPathUnits="userSpaceOnUse">
                <path d="M-809.903 861.641h1580v-1520h-1580Z"/>
            </clipPath>
        </defs>
        <path clip-path="url(#e8fad628-6689-489d-942b-651dc2113f1f)" transform="matrix(1.33333 0 0 -1.33333 1079.871 1148.855)" d="m0 0-1.51-1.491-1.928 1.416c-.809 2.02-1.901 3.869-2.764 5.873-10.735 24.91-20.66 49.772-27.965 76.035-1.214 4.361-4.769 17.519-5.574 22.426-2.936 17.892-6.952 33.914-5.242 52.724.61 6.713 4.527 21.646 5.223 25.777.778 4.613 6.808 16.455 8.969 21.031 13.399 28.371 32.565 54.536 52.813 78.187 6.388 7.462 6.493 7.188 11.72 15.052 3 4.514 11.085 13.427 15.26 18.968 23.029 30.573 44.867 67.886 45.034 107.957.03 7.291-3.319 30.219-4.275 33.806-.942 3.532-6.717 14.658-8.612 18.388C62.734 512.4 32.37 535.205-4.982 549.018c-17.158 6.346-40.483 11.229-58.632 12.455-24.835 1.678-51.075-1.563-75.655-6.204-4.753-.897-10.17-1.111-14.023-1.977-2.584-.581-11.45-3.27-14.985-5.015-11.584-5.714-25.061-9.228-37.128-14.873-43.479-20.341-89.327-58.117-118.576-96.423-18.407-24.108-36.145-55.673-47.223-82.777-1.674-4.095-6.733-14.724-7.534-17.403-.798-2.666-4.111-15.274-5.074-18.28-3.138-9.792-5.127-18.373-6.296-28.413-.62-5.33-10.193-46.22-10.982-56.112-1.51-18.926-2.702-37.683-2.869-57.037-.106-12.303 1.142-27.021 1.917-40.001 1.176-19.702 10.944-66.74 11.805-71.195.553-2.867 3.965-13.666 4.799-17.201.636-2.696 4.688-13.262 5.234-15.766.547-2.508 3.085-10.215 3.987-12.013 4.432-8.833 7.974-20.254 12.453-29.547 44.606-92.526 129.205-160.923 206.286-226.714 40.465-34.538 82.81-67.256 122.996-102.005 5.262-4.55 8.901-9.294 14.578-11.871 8.352-2.748 7.763-1.787 12.976 1.282 1.78 1.048 9.405 7.881 11.027 9.803 3.325 3.938 9.474 8.726 14.403 12.767 62.867 51.534 125.87 102.481 187.028 155.972 49.126 42.967 86.719 78.16 119.63 135.37 5.407 9.399 21.125 45.513 25.28 58.721.74 2.353 4.123 12.193 5 14.999.735 2.348 4.098 13.191 5.218 16.782.903 2.898 4.564 14.235 8.528 31.929 1.72 7.678 1.517 20.703 1.903 28.727.209 4.346-3.53 10.218 4.362 11.551 21.807-2.214 48.949 2.778 70.095-.003 3.311-.435 4.068-1.23 4.5-4.5.863-6.535-1.547-38.545-1.547-38.545s-2.101-12.97-3.761-24.239c-.732-4.967-4.031-20.104-5.167-24.833-.78-3.251-4.219-12.826-5.036-15.964-.652-2.507-8.018-22.424-10.2-29.8-9.041-30.569-25.594-58.799-43.184-85.816-46.26-71.052-112.988-130.171-178.653-183.347-16.499-13.362-32.375-27.719-49.02-40.98-8.766-6.984-16.171-11.2-24.48-19.52-10.488-10.502-15.257-14.017-26.938-23.062-30.152-23.348-59.707-47.518-90.997-69.232-2.633-1.828-18.355-10.416-18.355-10.416s-4.474-3.603-7.278-3.789c-3.479-.232-8.138 3.789-8.138 3.789s-21.338 10.659-37.376 23.206c-18.64 14.582-39.748 28.153-58.389 43.029-12.222 9.752-26.066 19.643-37.579 30.421-2.542 2.381-16.649 15.632-21.421 19.579-6.164 5.097-12.335 10.476-18.462 15.538-91.844 75.863-185.11 159.181-240.215 265.785-6.785 13.126-12.169 27.234-17.754 41.246-4.722 11.85-14.925 39.87-15.652 43.348-.824 3.937-4.281 16.837-5.014 19.986-.964 4.139-4.677 19.364-5.319 24.681-.65 5.391-3.61 22.516-4.037 25.963-1.044 8.425-6.226 58.361-6.111 72.973.103 13.121.888 24.982 2.208 36.947 1.079 9.782 2.339 21.918 3.888 31.947.5 3.236 3.262 20.831 4.173 25.827.674 3.689 4.376 24.273 6.197 30.803.725 2.598 3.197 15.156 4.64 19.36.919 2.678 3.584 12.141 4.59 15.41 1.742 5.662 5.456 15.183 7.463 21.12 29.735 87.99 102.671 176.333 181.985 226.432 15.649 9.885 32.578 17.476 48.61 25.39 6.44 3.18 13.731 4.577 20.344 6.656 2.179.685 11.007 4.116 13.241 4.759 1.817.523 12.605 4.257 15.99 5.01 2.08.463 14.061 3.665 17.987 5.013 12.955 4.449 79.905 11.482 115.262 9.82 18.728-.88 42.82-4.158 60.531-10.469 5.764-2.054 31.985-12.569 35.88-14.12 40.268-16.031 86.943-50.104 115.026-86.974 11.833-15.534 23.493-38.968 31.261-56.739 3.041-6.955 4.134-14.149 6.199-20.801.672-2.162 8.164-20.961 9.049-26.212.49-2.909 3.297-13.738 4.034-16.705 2.713-10.91 1.46-75.244-.029-88.013-.275-2.363-2.972-15.517-3.935-20.065-.757-3.573-6.71-21.472-9.095-28.905-13.06-40.7-46.236-86.727-79.45-114.55-35.825-30.011-82.536-49.26-110.453-88.547C8.485 66.487 4.37 58.24 1.217 47.256.644 45.26 0 0 0 0" fill="#ecc98d" data-color="1"/>
    </g>
</svg>
