<?xml version="1.0" standalone="no"?>
<svg xmlns="http://www.w3.org/2000/svg" width="500" height="500"><defs><clipPath id="clip-path-dot-color"><rect x="28" y="124" width="12" height="12" transform="rotate(0,34,130)"/><rect x="28" y="172" width="12" height="12" transform="rotate(0,34,178)"/><rect x="28" y="196" width="12" height="12" transform="rotate(0,34,202)"/><rect x="28" y="220" width="12" height="12" transform="rotate(0,34,226)"/><rect x="28" y="232" width="12" height="12" transform="rotate(0,34,238)"/><rect x="28" y="244" width="12" height="12" transform="rotate(0,34,250)"/><rect x="28" y="304" width="12" height="12" transform="rotate(0,34,310)"/><rect x="28" y="316" width="12" height="12" transform="rotate(0,34,322)"/><rect x="40" y="124" width="12" height="12" transform="rotate(0,46,130)"/><rect x="40" y="136" width="12" height="12" transform="rotate(0,46,142)"/><rect x="40" y="148" width="12" height="12" transform="rotate(0,46,154)"/><rect x="40" y="160" width="12" height="12" transform="rotate(0,46,166)"/><rect x="40" y="184" width="12" height="12" transform="rotate(0,46,190)"/><rect x="40" y="196" width="12" height="12" transform="rotate(0,46,202)"/><rect x="40" y="220" width="12" height="12" transform="rotate(0,46,226)"/><rect x="40" y="244" width="12" height="12" transform="rotate(0,46,250)"/><rect x="40" y="268" width="12" height="12" transform="rotate(0,46,274)"/><rect x="40" y="280" width="12" height="12" transform="rotate(0,46,286)"/><rect x="40" y="292" width="12" height="12" transform="rotate(0,46,298)"/><rect x="40" y="340" width="12" height="12" transform="rotate(0,46,346)"/><rect x="40" y="364" width="12" height="12" transform="rotate(0,46,370)"/><rect x="52" y="148" width="12" height="12" transform="rotate(0,58,154)"/><rect x="52" y="172" width="12" height="12" transform="rotate(0,58,178)"/><rect x="52" y="196" width="12" height="12" transform="rotate(0,58,202)"/><rect x="52" y="208" width="12" height="12" transform="rotate(0,58,214)"/><rect x="52" y="280" width="12" height="12" transform="rotate(0,58,286)"/><rect x="52" y="316" width="12" height="12" transform="rotate(0,58,322)"/><rect x="52" y="340" width="12" height="12" transform="rotate(0,58,346)"/><rect x="52" y="352" width="12" height="12" transform="rotate(0,58,358)"/><rect x="52" y="364" width="12" height="12" transform="rotate(0,58,370)"/><rect x="64" y="148" width="12" height="12" transform="rotate(0,70,154)"/><rect x="64" y="160" width="12" height="12" transform="rotate(0,70,166)"/><rect x="64" y="196" width="12" height="12" transform="rotate(0,70,202)"/><rect x="64" y="244" width="12" height="12" transform="rotate(0,70,250)"/><rect x="64" y="280" width="12" height="12" transform="rotate(0,70,286)"/><rect x="64" y="316" width="12" height="12" transform="rotate(0,70,322)"/><rect x="64" y="328" width="12" height="12" transform="rotate(0,70,334)"/><rect x="64" y="364" width="12" height="12" transform="rotate(0,70,370)"/><rect x="76" y="136" width="12" height="12" transform="rotate(0,82,142)"/><rect x="76" y="160" width="12" height="12" transform="rotate(0,82,166)"/><rect x="76" y="196" width="12" height="12" transform="rotate(0,82,202)"/><rect x="76" y="220" width="12" height="12" transform="rotate(0,82,226)"/><rect x="76" y="232" width="12" height="12" transform="rotate(0,82,238)"/><rect x="76" y="256" width="12" height="12" transform="rotate(0,82,262)"/><rect x="76" y="280" width="12" height="12" transform="rotate(0,82,286)"/><rect x="76" y="304" width="12" height="12" transform="rotate(0,82,310)"/><rect x="88" y="148" width="12" height="12" transform="rotate(0,94,154)"/><rect x="88" y="160" width="12" height="12" transform="rotate(0,94,166)"/><rect x="88" y="184" width="12" height="12" transform="rotate(0,94,190)"/><rect x="88" y="196" width="12" height="12" transform="rotate(0,94,202)"/><rect x="88" y="208" width="12" height="12" transform="rotate(0,94,214)"/><rect x="88" y="220" width="12" height="12" transform="rotate(0,94,226)"/><rect x="88" y="280" width="12" height="12" transform="rotate(0,94,286)"/><rect x="88" y="292" width="12" height="12" transform="rotate(0,94,298)"/><rect x="88" y="316" width="12" height="12" transform="rotate(0,94,322)"/><rect x="88" y="364" width="12" height="12" transform="rotate(0,94,370)"/><rect x="100" y="124" width="12" height="12" transform="rotate(0,106,130)"/><rect x="100" y="148" width="12" height="12" transform="rotate(0,106,154)"/><rect x="100" y="172" width="12" height="12" transform="rotate(0,106,178)"/><rect x="100" y="196" width="12" height="12" transform="rotate(0,106,202)"/><rect x="100" y="220" width="12" height="12" transform="rotate(0,106,226)"/><rect x="100" y="244" width="12" height="12" transform="rotate(0,106,250)"/><rect x="100" y="268" width="12" height="12" transform="rotate(0,106,274)"/><rect x="100" y="292" width="12" height="12" transform="rotate(0,106,298)"/><rect x="100" y="316" width="12" height="12" transform="rotate(0,106,322)"/><rect x="100" y="340" width="12" height="12" transform="rotate(0,106,346)"/><rect x="100" y="364" width="12" height="12" transform="rotate(0,106,370)"/><rect x="112" y="148" width="12" height="12" transform="rotate(0,118,154)"/><rect x="112" y="160" width="12" height="12" transform="rotate(0,118,166)"/><rect x="112" y="196" width="12" height="12" transform="rotate(0,118,202)"/><rect x="112" y="232" width="12" height="12" transform="rotate(0,118,238)"/><rect x="112" y="244" width="12" height="12" transform="rotate(0,118,250)"/><rect x="112" y="256" width="12" height="12" transform="rotate(0,118,262)"/><rect x="112" y="268" width="12" height="12" transform="rotate(0,118,274)"/><rect x="112" y="340" width="12" height="12" transform="rotate(0,118,346)"/><rect x="112" y="352" width="12" height="12" transform="rotate(0,118,358)"/><rect x="112" y="364" width="12" height="12" transform="rotate(0,118,370)"/><rect x="124" y="40" width="12" height="12" transform="rotate(0,130,46)"/><rect x="124" y="100" width="12" height="12" transform="rotate(0,130,106)"/><rect x="124" y="112" width="12" height="12" transform="rotate(0,130,118)"/><rect x="124" y="124" width="12" height="12" transform="rotate(0,130,130)"/><rect x="124" y="136" width="12" height="12" transform="rotate(0,130,142)"/><rect x="124" y="148" width="12" height="12" transform="rotate(0,130,154)"/><rect x="124" y="172" width="12" height="12" transform="rotate(0,130,178)"/><rect x="124" y="184" width="12" height="12" transform="rotate(0,130,190)"/><rect x="124" y="196" width="12" height="12" transform="rotate(0,130,202)"/><rect x="124" y="208" width="12" height="12" transform="rotate(0,130,214)"/><rect x="124" y="220" width="12" height="12" transform="rotate(0,130,226)"/><rect x="124" y="244" width="12" height="12" transform="rotate(0,130,250)"/><rect x="124" y="256" width="12" height="12" transform="rotate(0,130,262)"/><rect x="124" y="268" width="12" height="12" transform="rotate(0,130,274)"/><rect x="124" y="292" width="12" height="12" transform="rotate(0,130,298)"/><rect x="124" y="376" width="12" height="12" transform="rotate(0,130,382)"/><rect x="124" y="448" width="12" height="12" transform="rotate(0,130,454)"/><rect x="124" y="460" width="12" height="12" transform="rotate(0,130,466)"/><rect x="136" y="64" width="12" height="12" transform="rotate(0,142,70)"/><rect x="136" y="76" width="12" height="12" transform="rotate(0,142,82)"/><rect x="136" y="88" width="12" height="12" transform="rotate(0,142,94)"/><rect x="136" y="124" width="12" height="12" transform="rotate(0,142,130)"/><rect x="136" y="136" width="12" height="12" transform="rotate(0,142,142)"/><rect x="136" y="148" width="12" height="12" transform="rotate(0,142,154)"/><rect x="136" y="208" width="12" height="12" transform="rotate(0,142,214)"/><rect x="136" y="280" width="12" height="12" transform="rotate(0,142,286)"/><rect x="136" y="292" width="12" height="12" transform="rotate(0,142,298)"/><rect x="136" y="304" width="12" height="12" transform="rotate(0,142,310)"/><rect x="136" y="328" width="12" height="12" transform="rotate(0,142,334)"/><rect x="136" y="388" width="12" height="12" transform="rotate(0,142,394)"/><rect x="136" y="412" width="12" height="12" transform="rotate(0,142,418)"/><rect x="136" y="436" width="12" height="12" transform="rotate(0,142,442)"/><rect x="148" y="28" width="12" height="12" transform="rotate(0,154,34)"/><rect x="148" y="88" width="12" height="12" transform="rotate(0,154,94)"/><rect x="148" y="100" width="12" height="12" transform="rotate(0,154,106)"/><rect x="148" y="124" width="12" height="12" transform="rotate(0,154,130)"/><rect x="148" y="160" width="12" height="12" transform="rotate(0,154,166)"/><rect x="148" y="172" width="12" height="12" transform="rotate(0,154,178)"/><rect x="148" y="184" width="12" height="12" transform="rotate(0,154,190)"/><rect x="148" y="196" width="12" height="12" transform="rotate(0,154,202)"/><rect x="148" y="208" width="12" height="12" transform="rotate(0,154,214)"/><rect x="148" y="256" width="12" height="12" transform="rotate(0,154,262)"/><rect x="148" y="280" width="12" height="12" transform="rotate(0,154,286)"/><rect x="148" y="328" width="12" height="12" transform="rotate(0,154,334)"/><rect x="148" y="340" width="12" height="12" transform="rotate(0,154,346)"/><rect x="148" y="388" width="12" height="12" transform="rotate(0,154,394)"/><rect x="148" y="400" width="12" height="12" transform="rotate(0,154,406)"/><rect x="148" y="424" width="12" height="12" transform="rotate(0,154,430)"/><rect x="148" y="448" width="12" height="12" transform="rotate(0,154,454)"/><rect x="148" y="460" width="12" height="12" transform="rotate(0,154,466)"/><rect x="160" y="28" width="12" height="12" transform="rotate(0,166,34)"/><rect x="160" y="124" width="12" height="12" transform="rotate(0,166,130)"/><rect x="160" y="136" width="12" height="12" transform="rotate(0,166,142)"/><rect x="160" y="148" width="12" height="12" transform="rotate(0,166,154)"/><rect x="160" y="160" width="12" height="12" transform="rotate(0,166,166)"/><rect x="160" y="184" width="12" height="12" transform="rotate(0,166,190)"/><rect x="160" y="196" width="12" height="12" transform="rotate(0,166,202)"/><rect x="160" y="244" width="12" height="12" transform="rotate(0,166,250)"/><rect x="160" y="268" width="12" height="12" transform="rotate(0,166,274)"/><rect x="160" y="292" width="12" height="12" transform="rotate(0,166,298)"/><rect x="160" y="316" width="12" height="12" transform="rotate(0,166,322)"/><rect x="160" y="340" width="12" height="12" transform="rotate(0,166,346)"/><rect x="160" y="352" width="12" height="12" transform="rotate(0,166,358)"/><rect x="160" y="364" width="12" height="12" transform="rotate(0,166,370)"/><rect x="160" y="388" width="12" height="12" transform="rotate(0,166,394)"/><rect x="160" y="400" width="12" height="12" transform="rotate(0,166,406)"/><rect x="160" y="424" width="12" height="12" transform="rotate(0,166,430)"/><rect x="172" y="40" width="12" height="12" transform="rotate(0,178,46)"/><rect x="172" y="52" width="12" height="12" transform="rotate(0,178,58)"/><rect x="172" y="64" width="12" height="12" transform="rotate(0,178,70)"/><rect x="172" y="76" width="12" height="12" transform="rotate(0,178,82)"/><rect x="172" y="100" width="12" height="12" transform="rotate(0,178,106)"/><rect x="172" y="124" width="12" height="12" transform="rotate(0,178,130)"/><rect x="172" y="136" width="12" height="12" transform="rotate(0,178,142)"/><rect x="172" y="184" width="12" height="12" transform="rotate(0,178,190)"/><rect x="172" y="196" width="12" height="12" transform="rotate(0,178,202)"/><rect x="172" y="208" width="12" height="12" transform="rotate(0,178,214)"/><rect x="172" y="220" width="12" height="12" transform="rotate(0,178,226)"/><rect x="172" y="256" width="12" height="12" transform="rotate(0,178,262)"/><rect x="172" y="304" width="12" height="12" transform="rotate(0,178,310)"/><rect x="172" y="316" width="12" height="12" transform="rotate(0,178,322)"/><rect x="172" y="364" width="12" height="12" transform="rotate(0,178,370)"/><rect x="172" y="388" width="12" height="12" transform="rotate(0,178,394)"/><rect x="172" y="400" width="12" height="12" transform="rotate(0,178,406)"/><rect x="172" y="424" width="12" height="12" transform="rotate(0,178,430)"/><rect x="184" y="28" width="12" height="12" transform="rotate(0,190,34)"/><rect x="184" y="40" width="12" height="12" transform="rotate(0,190,46)"/><rect x="184" y="76" width="12" height="12" transform="rotate(0,190,82)"/><rect x="184" y="88" width="12" height="12" transform="rotate(0,190,94)"/><rect x="184" y="112" width="12" height="12" transform="rotate(0,190,118)"/><rect x="184" y="124" width="12" height="12" transform="rotate(0,190,130)"/><rect x="184" y="148" width="12" height="12" transform="rotate(0,190,154)"/><rect x="184" y="160" width="12" height="12" transform="rotate(0,190,166)"/><rect x="184" y="172" width="12" height="12" transform="rotate(0,190,178)"/><rect x="184" y="184" width="12" height="12" transform="rotate(0,190,190)"/><rect x="184" y="208" width="12" height="12" transform="rotate(0,190,214)"/><rect x="184" y="220" width="12" height="12" transform="rotate(0,190,226)"/><rect x="184" y="244" width="12" height="12" transform="rotate(0,190,250)"/><rect x="184" y="256" width="12" height="12" transform="rotate(0,190,262)"/><rect x="184" y="280" width="12" height="12" transform="rotate(0,190,286)"/><rect x="184" y="304" width="12" height="12" transform="rotate(0,190,310)"/><rect x="184" y="316" width="12" height="12" transform="rotate(0,190,322)"/><rect x="184" y="340" width="12" height="12" transform="rotate(0,190,346)"/><rect x="184" y="352" width="12" height="12" transform="rotate(0,190,358)"/><rect x="184" y="376" width="12" height="12" transform="rotate(0,190,382)"/><rect x="184" y="436" width="12" height="12" transform="rotate(0,190,442)"/><rect x="184" y="448" width="12" height="12" transform="rotate(0,190,454)"/><rect x="196" y="28" width="12" height="12" transform="rotate(0,202,34)"/><rect x="196" y="40" width="12" height="12" transform="rotate(0,202,46)"/><rect x="196" y="76" width="12" height="12" transform="rotate(0,202,82)"/><rect x="196" y="88" width="12" height="12" transform="rotate(0,202,94)"/><rect x="196" y="100" width="12" height="12" transform="rotate(0,202,106)"/><rect x="196" y="112" width="12" height="12" transform="rotate(0,202,118)"/><rect x="196" y="124" width="12" height="12" transform="rotate(0,202,130)"/><rect x="196" y="172" width="12" height="12" transform="rotate(0,202,178)"/><rect x="196" y="184" width="12" height="12" transform="rotate(0,202,190)"/><rect x="196" y="220" width="12" height="12" transform="rotate(0,202,226)"/><rect x="196" y="232" width="12" height="12" transform="rotate(0,202,238)"/><rect x="196" y="292" width="12" height="12" transform="rotate(0,202,298)"/><rect x="196" y="328" width="12" height="12" transform="rotate(0,202,334)"/><rect x="196" y="352" width="12" height="12" transform="rotate(0,202,358)"/><rect x="196" y="376" width="12" height="12" transform="rotate(0,202,382)"/><rect x="196" y="388" width="12" height="12" transform="rotate(0,202,394)"/><rect x="196" y="400" width="12" height="12" transform="rotate(0,202,406)"/><rect x="196" y="424" width="12" height="12" transform="rotate(0,202,430)"/><rect x="196" y="448" width="12" height="12" transform="rotate(0,202,454)"/><rect x="196" y="460" width="12" height="12" transform="rotate(0,202,466)"/><rect x="208" y="64" width="12" height="12" transform="rotate(0,214,70)"/><rect x="208" y="124" width="12" height="12" transform="rotate(0,214,130)"/><rect x="208" y="196" width="12" height="12" transform="rotate(0,214,202)"/><rect x="208" y="256" width="12" height="12" transform="rotate(0,214,262)"/><rect x="208" y="268" width="12" height="12" transform="rotate(0,214,274)"/><rect x="208" y="280" width="12" height="12" transform="rotate(0,214,286)"/><rect x="208" y="292" width="12" height="12" transform="rotate(0,214,298)"/><rect x="208" y="304" width="12" height="12" transform="rotate(0,214,310)"/><rect x="208" y="340" width="12" height="12" transform="rotate(0,214,346)"/><rect x="208" y="352" width="12" height="12" transform="rotate(0,214,358)"/><rect x="208" y="364" width="12" height="12" transform="rotate(0,214,370)"/><rect x="208" y="376" width="12" height="12" transform="rotate(0,214,382)"/><rect x="208" y="388" width="12" height="12" transform="rotate(0,214,394)"/><rect x="208" y="400" width="12" height="12" transform="rotate(0,214,406)"/><rect x="208" y="424" width="12" height="12" transform="rotate(0,214,430)"/><rect x="208" y="436" width="12" height="12" transform="rotate(0,214,442)"/><rect x="208" y="448" width="12" height="12" transform="rotate(0,214,454)"/><rect x="208" y="460" width="12" height="12" transform="rotate(0,214,466)"/><rect x="220" y="40" width="12" height="12" transform="rotate(0,226,46)"/><rect x="220" y="52" width="12" height="12" transform="rotate(0,226,58)"/><rect x="220" y="64" width="12" height="12" transform="rotate(0,226,70)"/><rect x="220" y="88" width="12" height="12" transform="rotate(0,226,94)"/><rect x="220" y="100" width="12" height="12" transform="rotate(0,226,106)"/><rect x="220" y="160" width="12" height="12" transform="rotate(0,226,166)"/><rect x="220" y="172" width="12" height="12" transform="rotate(0,226,178)"/><rect x="220" y="280" width="12" height="12" transform="rotate(0,226,286)"/><rect x="220" y="292" width="12" height="12" transform="rotate(0,226,298)"/><rect x="220" y="316" width="12" height="12" transform="rotate(0,226,322)"/><rect x="220" y="328" width="12" height="12" transform="rotate(0,226,334)"/><rect x="220" y="340" width="12" height="12" transform="rotate(0,226,346)"/><rect x="220" y="352" width="12" height="12" transform="rotate(0,226,358)"/><rect x="220" y="376" width="12" height="12" transform="rotate(0,226,382)"/><rect x="220" y="388" width="12" height="12" transform="rotate(0,226,394)"/><rect x="220" y="412" width="12" height="12" transform="rotate(0,226,418)"/><rect x="220" y="436" width="12" height="12" transform="rotate(0,226,442)"/><rect x="232" y="28" width="12" height="12" transform="rotate(0,238,34)"/><rect x="232" y="52" width="12" height="12" transform="rotate(0,238,58)"/><rect x="232" y="64" width="12" height="12" transform="rotate(0,238,70)"/><rect x="232" y="136" width="12" height="12" transform="rotate(0,238,142)"/><rect x="232" y="172" width="12" height="12" transform="rotate(0,238,178)"/><rect x="232" y="196" width="12" height="12" transform="rotate(0,238,202)"/><rect x="232" y="208" width="12" height="12" transform="rotate(0,238,214)"/><rect x="232" y="232" width="12" height="12" transform="rotate(0,238,238)"/><rect x="232" y="256" width="12" height="12" transform="rotate(0,238,262)"/><rect x="232" y="268" width="12" height="12" transform="rotate(0,238,274)"/><rect x="232" y="280" width="12" height="12" transform="rotate(0,238,286)"/><rect x="232" y="328" width="12" height="12" transform="rotate(0,238,334)"/><rect x="232" y="340" width="12" height="12" transform="rotate(0,238,346)"/><rect x="232" y="352" width="12" height="12" transform="rotate(0,238,358)"/><rect x="232" y="364" width="12" height="12" transform="rotate(0,238,370)"/><rect x="232" y="400" width="12" height="12" transform="rotate(0,238,406)"/><rect x="244" y="28" width="12" height="12" transform="rotate(0,250,34)"/><rect x="244" y="64" width="12" height="12" transform="rotate(0,250,70)"/><rect x="244" y="76" width="12" height="12" transform="rotate(0,250,82)"/><rect x="244" y="88" width="12" height="12" transform="rotate(0,250,94)"/><rect x="244" y="100" width="12" height="12" transform="rotate(0,250,106)"/><rect x="244" y="112" width="12" height="12" transform="rotate(0,250,118)"/><rect x="244" y="148" width="12" height="12" transform="rotate(0,250,154)"/><rect x="244" y="172" width="12" height="12" transform="rotate(0,250,178)"/><rect x="244" y="184" width="12" height="12" transform="rotate(0,250,190)"/><rect x="244" y="208" width="12" height="12" transform="rotate(0,250,214)"/><rect x="244" y="220" width="12" height="12" transform="rotate(0,250,226)"/><rect x="244" y="244" width="12" height="12" transform="rotate(0,250,250)"/><rect x="244" y="256" width="12" height="12" transform="rotate(0,250,262)"/><rect x="244" y="268" width="12" height="12" transform="rotate(0,250,274)"/><rect x="244" y="316" width="12" height="12" transform="rotate(0,250,322)"/><rect x="244" y="328" width="12" height="12" transform="rotate(0,250,334)"/><rect x="244" y="352" width="12" height="12" transform="rotate(0,250,358)"/><rect x="244" y="400" width="12" height="12" transform="rotate(0,250,406)"/><rect x="244" y="412" width="12" height="12" transform="rotate(0,250,418)"/><rect x="244" y="424" width="12" height="12" transform="rotate(0,250,430)"/><rect x="244" y="460" width="12" height="12" transform="rotate(0,250,466)"/><rect x="256" y="40" width="12" height="12" transform="rotate(0,262,46)"/><rect x="256" y="52" width="12" height="12" transform="rotate(0,262,58)"/><rect x="256" y="64" width="12" height="12" transform="rotate(0,262,70)"/><rect x="256" y="76" width="12" height="12" transform="rotate(0,262,82)"/><rect x="256" y="196" width="12" height="12" transform="rotate(0,262,202)"/><rect x="256" y="232" width="12" height="12" transform="rotate(0,262,238)"/><rect x="256" y="244" width="12" height="12" transform="rotate(0,262,250)"/><rect x="256" y="268" width="12" height="12" transform="rotate(0,262,274)"/><rect x="256" y="304" width="12" height="12" transform="rotate(0,262,310)"/><rect x="256" y="376" width="12" height="12" transform="rotate(0,262,382)"/><rect x="256" y="400" width="12" height="12" transform="rotate(0,262,406)"/><rect x="256" y="424" width="12" height="12" transform="rotate(0,262,430)"/><rect x="256" y="448" width="12" height="12" transform="rotate(0,262,454)"/><rect x="256" y="460" width="12" height="12" transform="rotate(0,262,466)"/><rect x="268" y="40" width="12" height="12" transform="rotate(0,274,46)"/><rect x="268" y="52" width="12" height="12" transform="rotate(0,274,58)"/><rect x="268" y="76" width="12" height="12" transform="rotate(0,274,82)"/><rect x="268" y="100" width="12" height="12" transform="rotate(0,274,106)"/><rect x="268" y="124" width="12" height="12" transform="rotate(0,274,130)"/><rect x="268" y="148" width="12" height="12" transform="rotate(0,274,154)"/><rect x="268" y="160" width="12" height="12" transform="rotate(0,274,166)"/><rect x="268" y="184" width="12" height="12" transform="rotate(0,274,190)"/><rect x="268" y="196" width="12" height="12" transform="rotate(0,274,202)"/><rect x="268" y="268" width="12" height="12" transform="rotate(0,274,274)"/><rect x="268" y="292" width="12" height="12" transform="rotate(0,274,298)"/><rect x="268" y="304" width="12" height="12" transform="rotate(0,274,310)"/><rect x="268" y="316" width="12" height="12" transform="rotate(0,274,322)"/><rect x="268" y="328" width="12" height="12" transform="rotate(0,274,334)"/><rect x="268" y="340" width="12" height="12" transform="rotate(0,274,346)"/><rect x="268" y="376" width="12" height="12" transform="rotate(0,274,382)"/><rect x="268" y="388" width="12" height="12" transform="rotate(0,274,394)"/><rect x="268" y="400" width="12" height="12" transform="rotate(0,274,406)"/><rect x="268" y="412" width="12" height="12" transform="rotate(0,274,418)"/><rect x="268" y="424" width="12" height="12" transform="rotate(0,274,430)"/><rect x="268" y="436" width="12" height="12" transform="rotate(0,274,442)"/><rect x="268" y="460" width="12" height="12" transform="rotate(0,274,466)"/><rect x="280" y="28" width="12" height="12" transform="rotate(0,286,34)"/><rect x="280" y="52" width="12" height="12" transform="rotate(0,286,58)"/><rect x="280" y="64" width="12" height="12" transform="rotate(0,286,70)"/><rect x="280" y="76" width="12" height="12" transform="rotate(0,286,82)"/><rect x="280" y="88" width="12" height="12" transform="rotate(0,286,94)"/><rect x="280" y="112" width="12" height="12" transform="rotate(0,286,118)"/><rect x="280" y="148" width="12" height="12" transform="rotate(0,286,154)"/><rect x="280" y="208" width="12" height="12" transform="rotate(0,286,214)"/><rect x="280" y="220" width="12" height="12" transform="rotate(0,286,226)"/><rect x="280" y="244" width="12" height="12" transform="rotate(0,286,250)"/><rect x="280" y="268" width="12" height="12" transform="rotate(0,286,274)"/><rect x="280" y="292" width="12" height="12" transform="rotate(0,286,298)"/><rect x="280" y="304" width="12" height="12" transform="rotate(0,286,310)"/><rect x="280" y="328" width="12" height="12" transform="rotate(0,286,334)"/><rect x="280" y="340" width="12" height="12" transform="rotate(0,286,346)"/><rect x="280" y="352" width="12" height="12" transform="rotate(0,286,358)"/><rect x="280" y="364" width="12" height="12" transform="rotate(0,286,370)"/><rect x="280" y="376" width="12" height="12" transform="rotate(0,286,382)"/><rect x="280" y="400" width="12" height="12" transform="rotate(0,286,406)"/><rect x="280" y="412" width="12" height="12" transform="rotate(0,286,418)"/><rect x="280" y="436" width="12" height="12" transform="rotate(0,286,442)"/><rect x="280" y="448" width="12" height="12" transform="rotate(0,286,454)"/><rect x="292" y="40" width="12" height="12" transform="rotate(0,298,46)"/><rect x="292" y="64" width="12" height="12" transform="rotate(0,298,70)"/><rect x="292" y="88" width="12" height="12" transform="rotate(0,298,94)"/><rect x="292" y="100" width="12" height="12" transform="rotate(0,298,106)"/><rect x="292" y="112" width="12" height="12" transform="rotate(0,298,118)"/><rect x="292" y="184" width="12" height="12" transform="rotate(0,298,190)"/><rect x="292" y="220" width="12" height="12" transform="rotate(0,298,226)"/><rect x="292" y="268" width="12" height="12" transform="rotate(0,298,274)"/><rect x="292" y="280" width="12" height="12" transform="rotate(0,298,286)"/><rect x="292" y="292" width="12" height="12" transform="rotate(0,298,298)"/><rect x="292" y="316" width="12" height="12" transform="rotate(0,298,322)"/><rect x="292" y="328" width="12" height="12" transform="rotate(0,298,334)"/><rect x="292" y="340" width="12" height="12" transform="rotate(0,298,346)"/><rect x="292" y="352" width="12" height="12" transform="rotate(0,298,358)"/><rect x="292" y="376" width="12" height="12" transform="rotate(0,298,382)"/><rect x="292" y="436" width="12" height="12" transform="rotate(0,298,442)"/><rect x="292" y="448" width="12" height="12" transform="rotate(0,298,454)"/><rect x="292" y="460" width="12" height="12" transform="rotate(0,298,466)"/><rect x="304" y="52" width="12" height="12" transform="rotate(0,310,58)"/><rect x="304" y="64" width="12" height="12" transform="rotate(0,310,70)"/><rect x="304" y="88" width="12" height="12" transform="rotate(0,310,94)"/><rect x="304" y="136" width="12" height="12" transform="rotate(0,310,142)"/><rect x="304" y="184" width="12" height="12" transform="rotate(0,310,190)"/><rect x="304" y="256" width="12" height="12" transform="rotate(0,310,262)"/><rect x="304" y="268" width="12" height="12" transform="rotate(0,310,274)"/><rect x="304" y="292" width="12" height="12" transform="rotate(0,310,298)"/><rect x="304" y="304" width="12" height="12" transform="rotate(0,310,310)"/><rect x="304" y="328" width="12" height="12" transform="rotate(0,310,334)"/><rect x="304" y="352" width="12" height="12" transform="rotate(0,310,358)"/><rect x="304" y="400" width="12" height="12" transform="rotate(0,310,406)"/><rect x="304" y="424" width="12" height="12" transform="rotate(0,310,430)"/><rect x="304" y="448" width="12" height="12" transform="rotate(0,310,454)"/><rect x="304" y="460" width="12" height="12" transform="rotate(0,310,466)"/><rect x="316" y="88" width="12" height="12" transform="rotate(0,322,94)"/><rect x="316" y="100" width="12" height="12" transform="rotate(0,322,106)"/><rect x="316" y="124" width="12" height="12" transform="rotate(0,322,130)"/><rect x="316" y="220" width="12" height="12" transform="rotate(0,322,226)"/><rect x="316" y="316" width="12" height="12" transform="rotate(0,322,322)"/><rect x="316" y="328" width="12" height="12" transform="rotate(0,322,334)"/><rect x="316" y="400" width="12" height="12" transform="rotate(0,322,406)"/><rect x="316" y="424" width="12" height="12" transform="rotate(0,322,430)"/><rect x="328" y="28" width="12" height="12" transform="rotate(0,334,34)"/><rect x="328" y="40" width="12" height="12" transform="rotate(0,334,46)"/><rect x="328" y="64" width="12" height="12" transform="rotate(0,334,70)"/><rect x="328" y="88" width="12" height="12" transform="rotate(0,334,94)"/><rect x="328" y="112" width="12" height="12" transform="rotate(0,334,118)"/><rect x="328" y="136" width="12" height="12" transform="rotate(0,334,142)"/><rect x="328" y="148" width="12" height="12" transform="rotate(0,334,154)"/><rect x="328" y="172" width="12" height="12" transform="rotate(0,334,178)"/><rect x="328" y="184" width="12" height="12" transform="rotate(0,334,190)"/><rect x="328" y="196" width="12" height="12" transform="rotate(0,334,202)"/><rect x="328" y="220" width="12" height="12" transform="rotate(0,334,226)"/><rect x="328" y="244" width="12" height="12" transform="rotate(0,334,250)"/><rect x="328" y="280" width="12" height="12" transform="rotate(0,334,286)"/><rect x="328" y="304" width="12" height="12" transform="rotate(0,334,310)"/><rect x="328" y="388" width="12" height="12" transform="rotate(0,334,394)"/><rect x="328" y="400" width="12" height="12" transform="rotate(0,334,406)"/><rect x="340" y="28" width="12" height="12" transform="rotate(0,346,34)"/><rect x="340" y="52" width="12" height="12" transform="rotate(0,346,58)"/><rect x="340" y="76" width="12" height="12" transform="rotate(0,346,82)"/><rect x="340" y="100" width="12" height="12" transform="rotate(0,346,106)"/><rect x="340" y="136" width="12" height="12" transform="rotate(0,346,142)"/><rect x="340" y="148" width="12" height="12" transform="rotate(0,346,154)"/><rect x="340" y="172" width="12" height="12" transform="rotate(0,346,178)"/><rect x="340" y="220" width="12" height="12" transform="rotate(0,346,226)"/><rect x="340" y="232" width="12" height="12" transform="rotate(0,346,238)"/><rect x="340" y="244" width="12" height="12" transform="rotate(0,346,250)"/><rect x="340" y="256" width="12" height="12" transform="rotate(0,346,262)"/><rect x="340" y="268" width="12" height="12" transform="rotate(0,346,274)"/><rect x="340" y="292" width="12" height="12" transform="rotate(0,346,298)"/><rect x="340" y="316" width="12" height="12" transform="rotate(0,346,322)"/><rect x="340" y="328" width="12" height="12" transform="rotate(0,346,334)"/><rect x="340" y="340" width="12" height="12" transform="rotate(0,346,346)"/><rect x="340" y="352" width="12" height="12" transform="rotate(0,346,358)"/><rect x="340" y="364" width="12" height="12" transform="rotate(0,346,370)"/><rect x="340" y="388" width="12" height="12" transform="rotate(0,346,394)"/><rect x="340" y="400" width="12" height="12" transform="rotate(0,346,406)"/><rect x="340" y="412" width="12" height="12" transform="rotate(0,346,418)"/><rect x="340" y="460" width="12" height="12" transform="rotate(0,346,466)"/><rect x="352" y="28" width="12" height="12" transform="rotate(0,358,34)"/><rect x="352" y="88" width="12" height="12" transform="rotate(0,358,94)"/><rect x="352" y="136" width="12" height="12" transform="rotate(0,358,142)"/><rect x="352" y="160" width="12" height="12" transform="rotate(0,358,166)"/><rect x="352" y="196" width="12" height="12" transform="rotate(0,358,202)"/><rect x="352" y="208" width="12" height="12" transform="rotate(0,358,214)"/><rect x="352" y="220" width="12" height="12" transform="rotate(0,358,226)"/><rect x="352" y="232" width="12" height="12" transform="rotate(0,358,238)"/><rect x="352" y="256" width="12" height="12" transform="rotate(0,358,262)"/><rect x="352" y="292" width="12" height="12" transform="rotate(0,358,298)"/><rect x="352" y="304" width="12" height="12" transform="rotate(0,358,310)"/><rect x="352" y="316" width="12" height="12" transform="rotate(0,358,322)"/><rect x="352" y="364" width="12" height="12" transform="rotate(0,358,370)"/><rect x="352" y="376" width="12" height="12" transform="rotate(0,358,382)"/><rect x="352" y="400" width="12" height="12" transform="rotate(0,358,406)"/><rect x="352" y="412" width="12" height="12" transform="rotate(0,358,418)"/><rect x="352" y="424" width="12" height="12" transform="rotate(0,358,430)"/><rect x="352" y="436" width="12" height="12" transform="rotate(0,358,442)"/><rect x="352" y="460" width="12" height="12" transform="rotate(0,358,466)"/><rect x="364" y="28" width="12" height="12" transform="rotate(0,370,34)"/><rect x="364" y="52" width="12" height="12" transform="rotate(0,370,58)"/><rect x="364" y="76" width="12" height="12" transform="rotate(0,370,82)"/><rect x="364" y="100" width="12" height="12" transform="rotate(0,370,106)"/><rect x="364" y="112" width="12" height="12" transform="rotate(0,370,118)"/><rect x="364" y="136" width="12" height="12" transform="rotate(0,370,142)"/><rect x="364" y="160" width="12" height="12" transform="rotate(0,370,166)"/><rect x="364" y="208" width="12" height="12" transform="rotate(0,370,214)"/><rect x="364" y="244" width="12" height="12" transform="rotate(0,370,250)"/><rect x="364" y="292" width="12" height="12" transform="rotate(0,370,298)"/><rect x="364" y="328" width="12" height="12" transform="rotate(0,370,334)"/><rect x="364" y="340" width="12" height="12" transform="rotate(0,370,346)"/><rect x="364" y="352" width="12" height="12" transform="rotate(0,370,358)"/><rect x="364" y="364" width="12" height="12" transform="rotate(0,370,370)"/><rect x="364" y="376" width="12" height="12" transform="rotate(0,370,382)"/><rect x="364" y="388" width="12" height="12" transform="rotate(0,370,394)"/><rect x="364" y="400" width="12" height="12" transform="rotate(0,370,406)"/><rect x="364" y="412" width="12" height="12" transform="rotate(0,370,418)"/><rect x="364" y="424" width="12" height="12" transform="rotate(0,370,430)"/><rect x="364" y="436" width="12" height="12" transform="rotate(0,370,442)"/><rect x="364" y="448" width="12" height="12" transform="rotate(0,370,454)"/><rect x="376" y="124" width="12" height="12" transform="rotate(0,382,130)"/><rect x="376" y="160" width="12" height="12" transform="rotate(0,382,166)"/><rect x="376" y="172" width="12" height="12" transform="rotate(0,382,178)"/><rect x="376" y="220" width="12" height="12" transform="rotate(0,382,226)"/><rect x="376" y="232" width="12" height="12" transform="rotate(0,382,238)"/><rect x="376" y="244" width="12" height="12" transform="rotate(0,382,250)"/><rect x="376" y="256" width="12" height="12" transform="rotate(0,382,262)"/><rect x="376" y="268" width="12" height="12" transform="rotate(0,382,274)"/><rect x="376" y="304" width="12" height="12" transform="rotate(0,382,310)"/><rect x="376" y="340" width="12" height="12" transform="rotate(0,382,346)"/><rect x="376" y="352" width="12" height="12" transform="rotate(0,382,358)"/><rect x="376" y="364" width="12" height="12" transform="rotate(0,382,370)"/><rect x="376" y="412" width="12" height="12" transform="rotate(0,382,418)"/><rect x="376" y="424" width="12" height="12" transform="rotate(0,382,430)"/><rect x="388" y="124" width="12" height="12" transform="rotate(0,394,130)"/><rect x="388" y="148" width="12" height="12" transform="rotate(0,394,154)"/><rect x="388" y="160" width="12" height="12" transform="rotate(0,394,166)"/><rect x="388" y="184" width="12" height="12" transform="rotate(0,394,190)"/><rect x="388" y="220" width="12" height="12" transform="rotate(0,394,226)"/><rect x="388" y="256" width="12" height="12" transform="rotate(0,394,262)"/><rect x="388" y="268" width="12" height="12" transform="rotate(0,394,274)"/><rect x="388" y="280" width="12" height="12" transform="rotate(0,394,286)"/><rect x="388" y="292" width="12" height="12" transform="rotate(0,394,298)"/><rect x="388" y="304" width="12" height="12" transform="rotate(0,394,310)"/><rect x="388" y="328" width="12" height="12" transform="rotate(0,394,334)"/><rect x="388" y="364" width="12" height="12" transform="rotate(0,394,370)"/><rect x="388" y="388" width="12" height="12" transform="rotate(0,394,394)"/><rect x="388" y="412" width="12" height="12" transform="rotate(0,394,418)"/><rect x="388" y="424" width="12" height="12" transform="rotate(0,394,430)"/><rect x="388" y="436" width="12" height="12" transform="rotate(0,394,442)"/><rect x="388" y="460" width="12" height="12" transform="rotate(0,394,466)"/><rect x="400" y="136" width="12" height="12" transform="rotate(0,406,142)"/><rect x="400" y="148" width="12" height="12" transform="rotate(0,406,154)"/><rect x="400" y="184" width="12" height="12" transform="rotate(0,406,190)"/><rect x="400" y="220" width="12" height="12" transform="rotate(0,406,226)"/><rect x="400" y="232" width="12" height="12" transform="rotate(0,406,238)"/><rect x="400" y="244" width="12" height="12" transform="rotate(0,406,250)"/><rect x="400" y="292" width="12" height="12" transform="rotate(0,406,298)"/><rect x="400" y="304" width="12" height="12" transform="rotate(0,406,310)"/><rect x="400" y="352" width="12" height="12" transform="rotate(0,406,358)"/><rect x="400" y="364" width="12" height="12" transform="rotate(0,406,370)"/><rect x="400" y="412" width="12" height="12" transform="rotate(0,406,418)"/><rect x="400" y="424" width="12" height="12" transform="rotate(0,406,430)"/><rect x="400" y="448" width="12" height="12" transform="rotate(0,406,454)"/><rect x="412" y="148" width="12" height="12" transform="rotate(0,418,154)"/><rect x="412" y="160" width="12" height="12" transform="rotate(0,418,166)"/><rect x="412" y="184" width="12" height="12" transform="rotate(0,418,190)"/><rect x="412" y="196" width="12" height="12" transform="rotate(0,418,202)"/><rect x="412" y="232" width="12" height="12" transform="rotate(0,418,238)"/><rect x="412" y="256" width="12" height="12" transform="rotate(0,418,262)"/><rect x="412" y="280" width="12" height="12" transform="rotate(0,418,286)"/><rect x="412" y="328" width="12" height="12" transform="rotate(0,418,334)"/><rect x="412" y="340" width="12" height="12" transform="rotate(0,418,346)"/><rect x="412" y="352" width="12" height="12" transform="rotate(0,418,358)"/><rect x="412" y="364" width="12" height="12" transform="rotate(0,418,370)"/><rect x="412" y="376" width="12" height="12" transform="rotate(0,418,382)"/><rect x="412" y="388" width="12" height="12" transform="rotate(0,418,394)"/><rect x="412" y="400" width="12" height="12" transform="rotate(0,418,406)"/><rect x="412" y="412" width="12" height="12" transform="rotate(0,418,418)"/><rect x="412" y="436" width="12" height="12" transform="rotate(0,418,442)"/><rect x="412" y="448" width="12" height="12" transform="rotate(0,418,454)"/><rect x="424" y="136" width="12" height="12" transform="rotate(0,430,142)"/><rect x="424" y="160" width="12" height="12" transform="rotate(0,430,166)"/><rect x="424" y="196" width="12" height="12" transform="rotate(0,430,202)"/><rect x="424" y="232" width="12" height="12" transform="rotate(0,430,238)"/><rect x="424" y="316" width="12" height="12" transform="rotate(0,430,322)"/><rect x="424" y="352" width="12" height="12" transform="rotate(0,430,358)"/><rect x="424" y="364" width="12" height="12" transform="rotate(0,430,370)"/><rect x="424" y="388" width="12" height="12" transform="rotate(0,430,394)"/><rect x="424" y="436" width="12" height="12" transform="rotate(0,430,442)"/><rect x="424" y="448" width="12" height="12" transform="rotate(0,430,454)"/><rect x="436" y="136" width="12" height="12" transform="rotate(0,442,142)"/><rect x="436" y="160" width="12" height="12" transform="rotate(0,442,166)"/><rect x="436" y="208" width="12" height="12" transform="rotate(0,442,214)"/><rect x="436" y="232" width="12" height="12" transform="rotate(0,442,238)"/><rect x="436" y="256" width="12" height="12" transform="rotate(0,442,262)"/><rect x="436" y="292" width="12" height="12" transform="rotate(0,442,298)"/><rect x="436" y="352" width="12" height="12" transform="rotate(0,442,358)"/><rect x="436" y="376" width="12" height="12" transform="rotate(0,442,382)"/><rect x="436" y="400" width="12" height="12" transform="rotate(0,442,406)"/><rect x="436" y="460" width="12" height="12" transform="rotate(0,442,466)"/><rect x="448" y="124" width="12" height="12" transform="rotate(0,454,130)"/><rect x="448" y="160" width="12" height="12" transform="rotate(0,454,166)"/><rect x="448" y="172" width="12" height="12" transform="rotate(0,454,178)"/><rect x="448" y="184" width="12" height="12" transform="rotate(0,454,190)"/><rect x="448" y="196" width="12" height="12" transform="rotate(0,454,202)"/><rect x="448" y="208" width="12" height="12" transform="rotate(0,454,214)"/><rect x="448" y="220" width="12" height="12" transform="rotate(0,454,226)"/><rect x="448" y="232" width="12" height="12" transform="rotate(0,454,238)"/><rect x="448" y="244" width="12" height="12" transform="rotate(0,454,250)"/><rect x="448" y="256" width="12" height="12" transform="rotate(0,454,262)"/><rect x="448" y="268" width="12" height="12" transform="rotate(0,454,274)"/><rect x="448" y="292" width="12" height="12" transform="rotate(0,454,298)"/><rect x="448" y="316" width="12" height="12" transform="rotate(0,454,322)"/><rect x="448" y="340" width="12" height="12" transform="rotate(0,454,346)"/><rect x="448" y="364" width="12" height="12" transform="rotate(0,454,370)"/><rect x="448" y="376" width="12" height="12" transform="rotate(0,454,382)"/><rect x="448" y="400" width="12" height="12" transform="rotate(0,454,406)"/><rect x="448" y="412" width="12" height="12" transform="rotate(0,454,418)"/><rect x="448" y="424" width="12" height="12" transform="rotate(0,454,430)"/><rect x="448" y="460" width="12" height="12" transform="rotate(0,454,466)"/><rect x="460" y="136" width="12" height="12" transform="rotate(0,466,142)"/><rect x="460" y="148" width="12" height="12" transform="rotate(0,466,154)"/><rect x="460" y="160" width="12" height="12" transform="rotate(0,466,166)"/><rect x="460" y="172" width="12" height="12" transform="rotate(0,466,178)"/><rect x="460" y="184" width="12" height="12" transform="rotate(0,466,190)"/><rect x="460" y="196" width="12" height="12" transform="rotate(0,466,202)"/><rect x="460" y="208" width="12" height="12" transform="rotate(0,466,214)"/><rect x="460" y="244" width="12" height="12" transform="rotate(0,466,250)"/><rect x="460" y="268" width="12" height="12" transform="rotate(0,466,274)"/><rect x="460" y="292" width="12" height="12" transform="rotate(0,466,298)"/><rect x="460" y="304" width="12" height="12" transform="rotate(0,466,310)"/><rect x="460" y="316" width="12" height="12" transform="rotate(0,466,322)"/><rect x="460" y="364" width="12" height="12" transform="rotate(0,466,370)"/><rect x="460" y="376" width="12" height="12" transform="rotate(0,466,382)"/><rect x="460" y="388" width="12" height="12" transform="rotate(0,466,394)"/><rect x="460" y="460" width="12" height="12" transform="rotate(0,466,466)"/></clipPath><clipPath id="clip-path-corners-square-color-0-0"><path clip-rule="evenodd" d="M 28 58v 24a 30 30, 0, 0, 0, 30 30h 24a 30 30, 0, 0, 0, 30 -30v -24a 30 30, 0, 0, 0, -30 -30h -24a 30 30, 0, 0, 0, -30 30M 58 40h 24a 18 18, 0, 0, 1, 18 18v 24a 18 18, 0, 0, 1, -18 18h -24a 18 18, 0, 0, 1, -18 -18v -24a 18 18, 0, 0, 1, 18 -18" transform="rotate(0,70,70)"/></clipPath><clipPath id="clip-path-corners-dot-color-0-0"><circle cx="70" cy="70" r="18" transform="rotate(0,70,70)"/></clipPath><clipPath id="clip-path-corners-square-color-1-0"><path clip-rule="evenodd" d="M 388 58v 24a 30 30, 0, 0, 0, 30 30h 24a 30 30, 0, 0, 0, 30 -30v -24a 30 30, 0, 0, 0, -30 -30h -24a 30 30, 0, 0, 0, -30 30M 418 40h 24a 18 18, 0, 0, 1, 18 18v 24a 18 18, 0, 0, 1, -18 18h -24a 18 18, 0, 0, 1, -18 -18v -24a 18 18, 0, 0, 1, 18 -18" transform="rotate(90,430,70)"/></clipPath><clipPath id="clip-path-corners-dot-color-1-0"><circle cx="430" cy="70" r="18" transform="rotate(90,430,70)"/></clipPath><clipPath id="clip-path-corners-square-color-0-1"><path clip-rule="evenodd" d="M 28 418v 24a 30 30, 0, 0, 0, 30 30h 24a 30 30, 0, 0, 0, 30 -30v -24a 30 30, 0, 0, 0, -30 -30h -24a 30 30, 0, 0, 0, -30 30M 58 400h 24a 18 18, 0, 0, 1, 18 18v 24a 18 18, 0, 0, 1, -18 18h -24a 18 18, 0, 0, 1, -18 -18v -24a 18 18, 0, 0, 1, 18 -18" transform="rotate(-90,70,430)"/></clipPath><clipPath id="clip-path-corners-dot-color-0-1"><circle cx="70" cy="430" r="18" transform="rotate(-90,70,430)"/></clipPath></defs><rect x="0" y="0" height="500" width="500" clip-path="url('#clip-path-background-color')" fill="#fff"/><rect x="0" y="0" height="500" width="500" clip-path="url('#clip-path-dot-color')" fill="#000000"/><rect x="28" y="28" height="84" width="84" clip-path="url('#clip-path-corners-square-color-0-0')" fill="#000000"/><rect x="52" y="52" height="36" width="36" clip-path="url('#clip-path-corners-dot-color-0-0')" fill="#000000"/><rect x="388" y="28" height="84" width="84" clip-path="url('#clip-path-corners-square-color-1-0')" fill="#000000"/><rect x="412" y="52" height="36" width="36" clip-path="url('#clip-path-corners-dot-color-1-0')" fill="#000000"/><rect x="28" y="388" height="84" width="84" clip-path="url('#clip-path-corners-square-color-0-1')" fill="#000000"/><rect x="52" y="412" height="36" width="36" clip-path="url('#clip-path-corners-dot-color-0-1')" fill="#000000"/></svg>